<?xml version="1.0" encoding="UTF-8"?>
<svg width="24px" height="20px" viewBox="0 0 24 20" version="1.1" xmlns="http://www.w3.org/2000/svg" xmlns:xlink="http://www.w3.org/1999/xlink">
    <title>3CA26FD8-C4DC-4C48-A40A-29322585707A</title>
    <g id="FINAL" stroke="none" stroke-width="1" fill="none" fill-rule="evenodd">
        <g id="Booking-Flow---Price" transform="translate(-32.000000, -209.000000)">
            <g id="Group-7" transform="translate(16.000000, 193.000000)">
                <g id="Group-13" transform="translate(16.000000, 16.000000)">
                    <g id="icon-piggy" transform="translate(0.000000, -0.000000)">
                        <path d="M15.3805421,3.25932059 C16.2688721,1.81017613 17.6417458,1.2762808 19.4991632,1.6576346 L19.4991632,1.6576346 L18.7715155,4.74751534 C20.0017556,5.58579029 20.9689907,6.68017996 21.5549225,7.93250074 C21.7002506,7.84629266 21.8712896,7.79743088 22.0537408,7.79743088 L22.3149445,7.79743088 C22.8672293,7.79743088 23.3149445,8.24514613 23.3149445,8.79743088 L23.3149445,11.8694365 C23.3149445,12.4217212 22.8672293,12.8694365 22.3149445,12.8694365 L22.0537408,12.8694365 C21.9776607,12.8694365 21.9035651,12.8609404 21.8323508,12.8448454 C21.2776165,14.4763991 20.0928584,15.8895064 18.5102036,16.891887 L18.5098866,19.5431281 L15.118081,19.5431281 L15.118451,18.2462194 C14.3943549,18.3958919 13.6367945,18.4753374 12.8568772,18.4753374 C11.7665157,18.4753374 10.7198517,18.3200581 9.74723622,18.0346898 L9.74772206,19.5431281 L6.35591644,19.5431281 L6.35604448,16.2853867 C4.61255134,14.8787739 3.52941176,12.9112973 3.52941176,10.7338552 C3.52941176,6.45835259 7.70546029,2.99237292 12.8568772,2.99237292 C13.7277898,2.99237292 14.5708241,3.09143826 15.3705141,3.27673244 Z" id="Combined-Shape" fill="#FFFFFF"></path>
                        <path d="M21.353363,8.12609765 L21.2436689,7.90418007 C20.6868021,6.7776057 19.7955089,5.78006343 18.6564811,5.0038236 L18.4390771,4.85566425 L19.1324229,1.9089448 C17.6486496,1.71122747 16.5788235,2.20531093 15.8459792,3.41202322 L15.6934506,3.66317899 L15.395709,3.59420562 C14.616141,3.41361466 13.8055207,3.32103969 12.979607,3.32103969 C8.0422347,3.32103969 4.05938139,6.62667383 4.05938139,10.6779066 C4.05938139,12.6813923 5.03594231,14.5594983 6.74316101,15.9368981 L6.88588607,16.05205 L6.88588607,19.1025641 L9.46321205,19.1025641 L9.46321205,17.4566781 L9.99125041,17.6115787 C10.9419788,17.8904758 11.9485559,18.0347734 12.979607,18.0347734 C13.7202275,18.0347734 14.4486935,17.960335 15.1537572,17.8146222 L15.6480506,17.7124685 L15.6480506,19.1025641 L18.2253766,19.1025641 L18.2253766,16.6309628 L18.4058117,16.5166936 C19.9253229,15.5543902 21.0362234,14.2135405 21.5604459,12.6943146 L21.6520391,12.4288725 L23.0304345,12.4288725 L23.0304345,8.12609765 L21.353363,8.12609765 Z M21.8673105,7.35686688 L23.1661811,7.35686688 C23.541035,7.35686688 23.8449142,7.64386383 23.8449142,7.99789252 L23.8449142,12.5570776 C23.8449142,12.9111063 23.541035,13.1981033 23.1661811,13.1981033 L22.2372861,13.1981033 C21.6456215,14.7143571 20.5287649,16.0490285 19.0398562,17.0385194 L19.0398562,19.8717949 L14.8335709,19.8717949 L14.8335709,18.6568475 C14.2271517,18.7544229 13.607185,18.8040042 12.979607,18.8040042 C12.0552359,18.8040042 11.1480814,18.6964158 10.2776917,18.4870283 L10.2776917,19.8717949 L6.07140643,19.8717949 L6.07140643,16.4042498 C4.27624514,14.8956619 3.24490175,12.8565544 3.24490175,10.6779066 C3.24490175,6.17813412 7.6141455,2.55180892 12.979607,2.55180892 C13.7687051,2.55180892 14.5456147,2.63019936 15.2984257,2.78369641 C16.2826772,1.35697953 17.7807989,0.830084825 19.7084028,1.22584892 L20.108186,1.30793001 L19.3495834,4.53199129 C20.4235823,5.30816734 21.2852284,6.27245376 21.8673105,7.35686688 Z" id="Combined-Shape" fill="#242120" fill-rule="nonzero"></path>
                        <ellipse id="Oval-3" fill="#242120" cx="17.4813462" cy="8.5661851" rx="1" ry="1"></ellipse>
                        <path d="M4.2201401,10.5504868 C4.19597024,9.35114424 3.24195996,8.35929144 2.0892985,8.33512158 C0.936637046,8.31095172 0.0218138516,9.26361744 0.0459837104,10.46296 L0.822122661,10.4792347 C0.806941047,9.7259015 1.38156141,9.12751142 2.10557316,9.14269303 C2.82958491,9.15787465 3.42881954,9.78087899 3.44400115,10.5342122 L4.2201401,10.5504868 Z" id="Oval-11" fill="#242120" fill-rule="nonzero" transform="translate(2.132828, 9.442579) scale(1, -1) rotate(-67.000000) translate(-2.132828, -9.442579) "></path>
                        <polygon id="Path-15" fill="#E7412A" fill-rule="nonzero" points="8.82352941 5.64102564 10.4524887 4.74358974 12.081448 4.48717949 12.2171946 3.71794872 12.081448 2.94871795 11.6742081 2.17948718 11.1312217 1.66666667 10.0452489 1.41025641 9.36651584 1.53846154 8.41628959 1.92307692 7.73755656 2.69230769 7.60180995 3.33333333 7.60180995 3.97435897 7.87330317 5 8.41628959 5.25641026"></polygon>
                        <path d="M7.54039992,7.09866703 C9.17159195,5.13016059 11.4243215,4.40678409 14.3428263,4.92360263 L14.4428924,4.41956561 C11.3315205,3.8685935 8.87340897,4.65792043 7.11279539,6.78261151 L7.54039992,7.09866703 Z" id="Path-8" fill="#242120" fill-rule="nonzero"></path>
                        <path d="M11.0551461,3.73373418 C11.0417669,2.99026 10.3994793,2.37685932 9.62076785,2.36346314 C8.84205641,2.35006696 8.22145471,2.94174214 8.23483389,3.68521632 L8.70714927,3.69334156 C8.69826086,3.19941706 9.1108417,2.80606679 9.6288931,2.81497884 C10.1469445,2.82389088 10.5739423,3.23168442 10.5828307,3.72560893 L11.0551461,3.73373418 Z" id="Oval-7" fill="#242120" fill-rule="nonzero" transform="translate(9.644884, 3.048487) rotate(-19.000000) translate(-9.644884, -3.048487) "></path>
                        <path d="M9.90351769,6.21537651 C11.3234547,6.24875864 12.4474794,5.0854111 12.4140973,3.61696705 C12.3807152,2.148523 11.2025673,0.93105233 9.78263029,0.897670196 C8.36269332,0.864288063 7.23866854,2.0276356 7.27205067,3.49607965 L7.92084808,3.51133261 C7.89588992,2.41345023 8.73626719,1.5436733 9.79788325,1.56863146 C10.8594993,1.59358961 11.7403417,2.50383171 11.7652999,3.60171409 C11.7902581,4.69959647 10.9498808,5.5693734 9.88826473,5.54441525 L9.90351769,6.21537651 Z" id="Oval-2" fill="#242120" fill-rule="nonzero" transform="translate(9.843074, 3.556523) rotate(-63.000000) translate(-9.843074, -3.556523) "></path>
                    </g>
                </g>
            </g>
        </g>
    </g>
</svg>