<?xml version="1.0" encoding="UTF-8"?>
<svg width="21px" height="20px" viewBox="0 0 21 20" version="1.1" xmlns="http://www.w3.org/2000/svg" xmlns:xlink="http://www.w3.org/1999/xlink">
    <title>1C346944-AE04-45DE-BE2D-75F226F6BAD6</title>
    <g id="FINAL" stroke="none" stroke-width="1" fill="none" fill-rule="evenodd">
        <g id="Booking-Flow---Price---Missing-Information" transform="translate(-33.000000, -221.000000)">
            <g id="Group-7" transform="translate(16.000000, 159.000000)">
                <g id="Group-13" transform="translate(16.000000, 16.000000)">
                    <g id="Group-10" transform="translate(1.000000, 46.000000)">
                        <g id="Icons-/-Value-Props-/-icon-support-accent" transform="translate(-0.000000, 0.000000)">
                            <g id="icon-support" transform="translate(0.517647, 0.000000)">
                                <circle id="Oval-9" fill="#FFFFFF" cx="9.75725987" cy="9.75725987" r="9.25688757"></circle>
                                <path d="M9.88235294,19.6396128 C4.49356712,19.6396128 0.125093075,15.2711388 0.125093075,9.88235294 C0.125093075,4.49356712 4.49356712,0.125093075 9.88235294,0.125093075 C15.2711388,0.125093075 19.6396128,4.49356712 19.6396128,9.88235294 C19.6396128,15.2711388 15.2711388,19.6396128 9.88235294,19.6396128 Z M9.88235294,18.8890544 C14.8566168,18.8890544 18.8890544,14.8566168 18.8890544,9.88235294 C18.8890544,4.9080891 14.8566168,0.875651526 9.88235294,0.875651526 C4.9080891,0.875651526 0.875651526,4.9080891 0.875651526,9.88235294 C0.875651526,14.8566168 4.9080891,18.8890544 9.88235294,18.8890544 Z" id="Oval-8" fill="#242120" fill-rule="nonzero"></path>
                                <g id="Group-5" transform="translate(5.082353, 4.800000)" fill-rule="nonzero">
                                    <path d="M8.91714556,3.45953377 L6.29225798,3.25720063 C6.17500836,3.24814926 6.07335489,3.17253543 6.03060473,3.06266561 L5.02896991,0.482883331 C4.92773419,0.222342867 4.56011068,0.222342867 4.45901421,0.482883331 L3.45724014,3.06266561 C3.41462923,3.17253543 3.31297576,3.24814926 3.19572614,3.25720063 L0.570699303,3.45953377 C0.30138723,3.48028232 0.189150657,3.8156011 0.391482841,3.9950969 L2.42260275,5.79771385 C2.50684981,5.87249217 2.54333365,5.98765356 2.51757216,6.09752338 L1.87994031,8.82170997 C1.81699871,9.0907448 2.11318629,9.29962278 2.34420425,9.14909138 L4.57737784,7.69432589 C4.67861356,7.62832045 4.80923131,7.62832045 4.91046703,7.69432589 L7.14364062,9.14909138 C7.37479782,9.29962278 7.67098541,9.0907448 7.60790455,8.82170997 L6.97027271,6.09752338 C6.94451121,5.98765356 6.98099506,5.87249217 7.06538137,5.79771385 L9.09636203,3.9950969 C9.29869421,3.8156011 9.18645764,3.48028232 8.91714556,3.45953377" id="icon-star-color" fill="#E7412A"></path>
                                    <path d="M4.19099728,0.378885801 C4.38089146,-0.110499433 5.0565976,-0.125792721 5.27708096,0.332955676 L5.29696538,0.378830519 L6.29852466,2.95841842 C6.30034325,2.96309228 6.30369979,2.96669535 6.30778337,2.96873618 L6.31435265,2.9705643 L8.93922889,3.17289656 C9.4464403,3.21197353 9.66605538,3.82477202 9.32020454,4.17867254 L9.28719807,4.21010892 L7.2560468,6.01287718 C7.25256512,6.01596245 7.25037479,6.02023818 7.24980112,6.02487701 L7.25019376,6.03200416 L7.88780026,8.75608256 C8.00665711,9.2629976 7.4660118,9.66021855 7.02336512,9.41215214 L6.98672098,9.38997474 L4.75345214,7.93514717 C4.74958201,7.93262386 4.74498129,7.93178275 4.74059588,7.93264225 L4.73429748,7.93520925 L2.50115201,9.38995642 C2.06471192,9.67434096 1.50909902,9.298535 1.59164682,8.7981651 L1.60001926,8.75619075 L2.23767658,6.03189545 C2.23878952,6.02714884 2.23811809,6.02227595 2.23599821,6.0181802 L2.23177403,6.01273237 L0.200698006,4.21015436 C-0.179728359,3.87266511 0.0137797362,3.25108978 0.503296551,3.17800706 L0.548605797,3.17289734 L3.17359872,2.97056683 C3.17819427,2.97021206 3.1824264,2.96808515 3.18553183,2.96465775 L3.18924954,2.95860023 L4.19099728,0.378885801 Z M6.27013056,3.54383444 C6.0577826,3.52744171 5.87189224,3.39865043 5.78068058,3.20840692 L5.76260925,3.16671842 L4.7610013,0.58700533 C4.7560173,0.574178495 4.74121761,0.571613129 4.73232296,0.579280242 L4.72700481,0.586948714 L3.7252747,3.16661769 C3.64819791,3.36535586 3.47125155,3.50640756 3.26291801,3.53861914 L3.21781964,3.54383706 L0.592782626,3.74617098 C0.579934208,3.74716086 0.572787906,3.76103409 0.57696642,3.77233065 L0.582311564,3.78007839 L2.61344452,5.58270692 C2.76414533,5.71647008 2.83590767,5.9167038 2.80686629,6.11385836 L2.79749321,6.1630426 L2.15986819,8.88720003 C2.1566581,8.90092111 2.16749536,8.91176035 2.17886691,8.91109186 L2.18728461,8.90820803 L4.42036296,7.45350462 C4.60298161,7.3344377 4.83485189,7.32593292 5.02443023,7.42794058 L5.06738666,7.45344254 L7.30052199,8.90818311 C7.31140089,8.91526754 7.32502862,8.90860867 7.3279808,8.89685991 L7.3279835,8.88722919 L6.69037713,6.16315131 C6.64433681,5.96679468 6.70104928,5.76168203 6.83851049,5.61745094 L6.87454533,5.58270184 L8.90557719,3.78003945 C8.91573442,3.77102862 8.91318925,3.7555512 8.9035419,3.74908714 L8.89506224,3.74617098 L6.27013056,3.54383444 Z" id="icon-star-color" fill="#242120"></path>
                                </g>
                            </g>
                        </g>
                    </g>
                </g>
            </g>
        </g>
    </g>
</svg>